<?xml version="1.0" encoding="UTF-8"?>
<svg width="450px" height="81px" viewBox="0 0 450 81" version="1.1" xmlns="http://www.w3.org/2000/svg" xmlns:xlink="http://www.w3.org/1999/xlink">
    <!-- Generator: Sketch 55.2 (78181) - https://sketchapp.com -->
    <title>FiestaFriday</title>
    <desc>Created with Sketch.</desc>
    <g id="Page-1" stroke="none" stroke-width="1" fill="none" fill-rule="evenodd">
        <g id="FiestaFriday" transform="translate(-400.000000, -335.000000)" fill="#353535" fill-rule="nonzero">
            <path d="M400,395.299046 L400,393.495228 L401.639634,393.065748 C402.790259,392.722162 403.538155,392.20679 403.883343,391.519618 C404.22853,390.832446 404.429887,389.887599 404.487418,388.685048 C404.54495,385.42098 404.573715,382.114015 404.573715,378.764051 L404.573715,355.185578 C404.573715,351.864246 404.54495,348.542965 404.487418,345.221633 C404.429887,344.019082 404.257296,343.08855 403.969639,342.430011 C403.681983,341.771471 402.991618,341.270415 401.898523,340.926829 L400,340.325557 L400,338.521739 L441.508619,338.521739 L442.112694,353.038176 L439.782688,353.038176 L435.29527,344.534464 C434.719957,343.446442 434.087123,342.601806 433.396747,342.00053 C432.706372,341.399255 431.699589,341.098621 430.376369,341.098621 L417.086708,341.098621 C417.029177,344.935332 416.986029,348.872196 416.957263,352.909332 C416.928497,356.946468 416.914115,360.969227 416.914115,364.977731 L425.198579,364.977731 C426.521799,364.977731 427.499816,364.677097 428.13266,364.075822 C428.765501,363.474546 429.369574,362.62991 429.944887,361.541888 L431.670817,358.363733 L433.56934,358.363733 L433.56934,374.082715 L431.670817,374.082715 L429.944887,370.990456 C429.312043,369.845169 428.693591,368.971901 428.089512,368.370626 C427.485434,367.76935 426.521799,367.468717 425.198579,367.468717 L416.914115,367.468717 L416.914115,378.334571 C416.914115,381.799063 416.94288,385.191924 417.000411,388.513256 C417.000411,390.861093 418.064724,392.321312 420.193382,392.893955 L422.782277,393.495228 L422.782277,395.299046 L400,395.299046 Z M443.192026,395.299046 L443.192026,393.66702 L444.486473,393.323436 C445.637099,392.97985 446.41376,392.464479 446.816479,391.777306 C447.219198,391.090134 447.44932,390.173919 447.506851,389.028632 L447.506851,368.28473 C447.506851,366.767225 447.478086,365.206795 447.420554,363.603393 C447.420554,362.458107 447.204815,361.556207 446.773331,360.897667 C446.341846,360.239127 445.550803,359.795335 444.400177,359.566278 L443.192026,359.30859 L443.192026,357.76246 L458.293914,352.780488 L459.329472,353.725345 L459.070582,365.922587 L459.070582,389.114528 C459.070582,390.259815 459.286322,391.17603 459.717806,391.863203 C460.149291,392.550375 460.911569,393.065746 462.004664,393.409332 L462.953925,393.66702 L462.953925,395.299046 L443.192026,395.299046 Z M487.074423,352.780488 C490.698895,352.780488 493.805538,353.524913 496.394446,355.013786 C498.983354,356.502659 500.982536,358.549828 502.392053,361.155355 C503.80157,363.760883 504.506317,366.752899 504.506317,370.131495 C504.506317,370.875932 504.477552,371.577409 504.420021,372.235949 C504.362489,372.894489 504.247429,373.510071 504.074835,374.082715 L478.099587,374.082715 C478.157118,379.980941 479.264579,384.218439 481.422002,386.795334 C483.579426,389.372229 486.729217,390.660657 490.87147,390.660657 C493.748034,390.660657 496.078016,390.188234 497.861486,389.243372 C499.644956,388.298511 501.284574,386.967135 502.780387,385.249205 L504.161131,386.537646 C502.435193,389.687184 500.090828,392.135198 497.127966,393.88176 C494.165105,395.628323 490.641366,396.501591 486.556644,396.501591 C482.471923,396.501591 478.876271,395.642638 475.769581,393.924708 C472.662892,392.206778 470.232231,389.730133 468.477527,386.494698 C466.722822,383.259263 465.845483,379.379662 465.845483,374.855779 C465.845483,370.160104 466.866648,366.180292 468.909009,362.916225 C470.95137,359.652158 473.59777,357.14688 476.848288,355.400318 C480.098806,353.653756 483.507483,352.780488 487.074423,352.780488 Z M486.642941,355.271474 C484.974533,355.271474 483.52189,355.743898 482.284967,356.688759 C481.048045,357.633621 480.070027,359.294262 479.350886,361.670732 C478.631745,364.047202 478.21465,367.382799 478.099587,371.677625 L493.546661,371.677625 C494.179505,365.893927 493.949384,361.713693 492.856289,359.136797 C491.763195,356.559902 489.692099,355.271474 486.642941,355.271474 Z M522.58606,396.501591 C519.824558,396.501591 517.336367,396.200957 515.121413,395.599682 C512.906458,394.998406 510.792215,394.15377 508.77862,393.065748 L508.77862,382.930011 L511.108625,382.930011 L513.69752,387.826087 C514.790615,389.944867 516.041902,391.519613 517.451418,392.550371 C518.860935,393.581129 520.658761,394.096501 522.84495,394.096501 C525.54892,394.096501 527.706311,393.50955 529.317188,392.335631 C530.928064,391.161712 531.73349,389.572651 531.73349,387.568399 C531.73349,385.73594 531.12942,384.24709 529.921263,383.101803 C528.713106,381.956516 526.555715,380.897142 523.449025,379.923648 L519.651979,378.721103 C516.257633,377.690345 513.568085,376.129915 511.583256,374.039767 C509.598426,371.949618 508.606027,369.329814 508.606027,366.180276 C508.606027,363.717909 509.267626,361.470318 510.590846,359.437434 C511.914066,357.40455 513.841335,355.786856 516.372712,354.584305 C518.904089,353.381754 521.981967,352.780488 525.606438,352.780488 C527.965221,352.780488 530.136994,353.052489 532.121824,353.596501 C534.106654,354.140512 536.048305,354.899253 537.946838,355.872747 L537.429059,365.063627 L535.18535,365.063627 L532.510158,360.16755 C531.589658,358.335092 530.654788,357.060979 529.705522,356.345175 C528.756256,355.629371 527.303612,355.271474 525.347548,355.271474 C523.276422,355.271474 521.449831,355.801161 519.86772,356.860551 C518.28561,357.919942 517.494567,359.394476 517.494567,361.284199 C517.494567,363.059394 518.156166,364.505297 519.479386,365.621951 C520.802606,366.738606 522.931232,367.783664 525.865327,368.757158 L529.576077,369.873807 C533.775861,371.190887 536.767444,372.937423 538.550914,375.113468 C540.334384,377.289512 541.226105,379.895001 541.226105,382.930011 C541.226105,386.995779 539.600871,390.274113 536.350353,392.765111 C533.099835,395.25611 528.511783,396.501591 522.58606,396.501591 Z M560.168813,396.501591 C556.601873,396.501591 553.797265,395.628323 551.754904,393.88176 C549.712543,392.135198 548.691378,389.28634 548.691378,385.335101 C548.691378,383.960757 548.705761,382.658013 548.734526,381.426829 C548.763292,380.195646 548.777675,378.749743 548.777675,377.089077 L548.777675,356.731707 L542.650623,356.731707 L542.650623,354.841994 L544.980628,354.498409 C546.649036,354.212088 548.072914,353.696716 549.252305,352.95228 C550.431697,352.207844 551.510392,351.177101 552.488424,349.860021 L558.097697,342.129374 L560.686592,342.129374 L560.427703,354.068929 L570.265504,354.068929 L570.265504,356.731707 L560.341406,356.731707 L560.341406,386.022269 C560.341406,388.083785 560.787267,389.629899 561.679002,390.660657 C562.570737,391.691416 563.678198,392.206787 565.001417,392.206787 C566.152043,392.206787 567.187591,391.934785 568.108092,391.390774 C569.028592,390.846763 569.949079,390.116654 570.86958,389.200424 L571.991434,390.488865 C570.89834,392.378588 569.373783,393.853123 567.41772,394.912513 C565.461656,395.971903 563.045378,396.501591 560.168813,396.501591 Z M586.101538,396.501591 C582.822254,396.501591 580.046411,395.571059 577.773925,393.709968 C575.501439,391.848877 574.365213,389.17181 574.365213,385.678685 C574.365213,382.929997 575.702796,380.396088 578.378001,378.076882 C581.053206,375.757677 585.26731,374.054088 591.020439,372.966066 C591.998471,372.737008 593.134697,372.52227 594.429151,372.321845 C595.723605,372.12142 597.003657,371.906682 598.269345,371.677625 L598.269345,365.579003 C598.269345,361.685028 597.780337,358.993645 596.802305,357.504772 C595.824273,356.015899 594.270951,355.271474 592.142293,355.271474 L591.883404,355.271474 C590.560184,355.271474 589.510254,355.686634 588.733581,356.516967 C587.956909,357.3473 587.453518,358.707308 587.223393,360.597031 L586.964503,361.71368 C586.791909,364.004253 586.18784,365.67921 585.152277,366.7386 C584.116713,367.79799 582.822279,368.327678 581.268934,368.327678 C579.830652,368.327678 578.636895,367.883886 577.687629,366.996288 C576.738363,366.108691 576.263737,364.949106 576.263737,363.517497 C576.263737,361.16966 577.069163,359.19407 578.680039,357.590668 C580.290915,355.987267 582.433923,354.784734 585.109128,353.983033 C587.784333,353.181332 590.675237,352.780488 593.781927,352.780488 C598.902212,352.780488 602.814281,354.011653 605.518252,356.474019 C608.222222,358.936386 609.574187,362.944829 609.574187,368.49947 L609.574187,387.654295 C609.574187,390.116661 610.753561,391.347826 613.112344,391.347826 L615.097163,391.347826 L615.960129,392.292683 C614.924565,393.609763 613.773957,394.626189 612.508268,395.341994 C611.24258,396.057798 609.516667,396.415695 607.330478,396.415695 C604.856633,396.415695 602.886215,395.828744 601.419168,394.654825 C599.95212,393.480906 598.988485,391.920476 598.528235,389.973489 C596.687233,391.920476 594.875025,393.495222 593.091555,394.697773 C591.308085,395.900324 588.978103,396.501591 586.101538,396.501591 Z M591.106735,391.004242 C592.257361,391.004242 593.350439,390.746556 594.386002,390.231177 C595.421566,389.715798 596.716,388.856846 598.269345,387.654295 L598.269345,373.910923 C596.773532,374.13998 595.248975,374.426297 593.69563,374.769883 C591.221785,375.342527 589.222603,376.401901 587.698023,377.948038 C586.173444,379.494175 585.411166,381.584292 585.411166,384.218452 C585.411166,386.509025 585.943322,388.212614 587.007651,389.329268 C588.07198,390.445923 589.438328,391.004242 591.106735,391.004242 Z M616.866867,395.299046 L616.866867,393.495228 L618.506501,393.065748 C619.657127,392.722162 620.405022,392.20679 620.75021,391.519618 C621.095398,390.832446 621.296754,389.887599 621.354285,388.685048 C621.411817,385.42098 621.440582,382.114015 621.440582,378.764051 L621.440582,355.185578 C621.440582,351.864246 621.411817,348.542965 621.354285,345.221633 C621.296754,344.019082 621.124163,343.08855 620.836506,342.430011 C620.54885,341.771471 619.858485,341.270415 618.76539,340.926829 L616.866867,340.325557 L616.866867,338.521739 L658.375486,338.521739 L658.979561,353.038176 L656.649556,353.038176 L652.162137,344.534464 C651.586824,343.446442 650.95399,342.601806 650.263614,342.00053 C649.573239,341.399255 648.566456,341.098621 647.243237,341.098621 L633.953575,341.098621 C633.896044,344.935332 633.852896,348.872196 633.82413,352.909332 C633.795365,356.946468 633.780982,360.969227 633.780982,364.977731 L642.065446,364.977731 C643.388666,364.977731 644.366683,364.677097 644.999528,364.075822 C645.632369,363.474546 646.236441,362.62991 646.811754,361.541888 L648.537684,358.363733 L650.436207,358.363733 L650.436207,374.082715 L648.537684,374.082715 L646.811754,370.990456 C646.17891,369.845169 645.560458,368.971901 644.956379,368.370626 C644.352301,367.76935 643.388666,367.468717 642.065446,367.468717 L633.780982,367.468717 L633.780982,378.334571 C633.780982,381.799063 633.809747,385.191924 633.867278,388.513256 C633.867278,390.861093 634.931591,392.321312 637.060249,392.893955 L639.649144,393.495228 L639.649144,395.299046 L616.866867,395.299046 Z M659.109631,395.299046 L659.109631,393.66702 L660.404079,393.23754 C661.554705,392.951218 662.345748,392.464479 662.777233,391.777306 C663.208717,391.090134 663.424457,390.173919 663.424457,389.028632 L663.424457,363.861082 C663.366925,362.601266 663.136804,361.642103 662.734084,360.983563 C662.331365,360.325023 661.554705,359.881231 660.404079,359.652174 L659.109631,359.30859 L659.109631,357.76246 L673.175961,352.780488 L674.21152,353.725345 L674.988188,361.284199 L674.988188,361.885472 C675.851157,360.28207 676.944236,358.79322 678.267455,357.418876 C679.590675,356.044532 681.028936,354.927894 682.58228,354.068929 C684.135625,353.209964 685.688947,352.780488 687.242292,352.780488 C689.428481,352.780488 691.068098,353.353123 692.161192,354.498409 C693.254287,355.643696 693.800826,357.103915 693.800826,358.879109 C693.800826,360.826097 693.254287,362.300631 692.161192,363.302757 C691.068098,364.304883 689.744898,364.805938 688.191553,364.805938 C685.890302,364.805938 683.905502,363.775196 682.237094,361.71368 L682.064501,361.541888 C681.489189,360.854716 680.841971,360.468187 680.12283,360.382291 C679.403689,360.296394 678.698941,360.654291 678.008566,361.455992 C677.433253,362.028635 676.901096,362.701481 676.41208,363.474549 C675.923064,364.247618 675.477204,365.149518 675.074485,366.180276 L675.074485,388.685048 C675.074485,389.77307 675.304606,390.67497 675.764857,391.390774 C676.225107,392.106578 677.001768,392.607634 678.094862,392.893955 L680.683757,393.66702 L680.683757,395.299046 L659.109631,395.299046 Z M695.484233,395.299046 L695.484233,393.66702 L696.778681,393.323436 C697.929307,392.97985 698.705967,392.464479 699.108686,391.777306 C699.511405,391.090134 699.741527,390.173919 699.799058,389.028632 L699.799058,368.28473 C699.799058,366.767225 699.770293,365.206795 699.712762,363.603393 C699.712762,362.458107 699.497023,361.556207 699.065538,360.897667 C698.634053,360.239127 697.84301,359.795335 696.692384,359.566278 L695.484233,359.30859 L695.484233,357.76246 L710.586121,352.780488 L711.621679,353.725345 L711.36279,365.922587 L711.36279,389.114528 C711.36279,390.259815 711.578529,391.17603 712.010014,391.863203 C712.441498,392.550375 713.203777,393.065746 714.296871,393.409332 L715.246133,393.66702 L715.246133,395.299046 L695.484233,395.299046 Z M735.914771,396.501591 C732.520425,396.501591 729.471312,395.74285 726.767341,394.225345 C724.063371,392.70784 721.949127,390.360037 720.424548,387.181866 C718.899969,384.003696 718.137691,379.952305 718.137691,375.027572 C718.137691,370.102839 719.000647,365.994184 720.726586,362.701485 C722.452525,359.408785 724.753742,356.93214 727.630306,355.271474 C730.506871,353.610808 733.671044,352.780488 737.122922,352.780488 C739.194048,352.780488 741.178848,353.023858 743.077381,353.510604 C744.975913,353.997351 746.644296,354.727461 748.082578,355.700954 L748.082578,344.534464 C748.082578,343.331913 747.895604,342.458645 747.521651,341.914634 C747.147697,341.370623 746.385419,340.955463 745.234793,340.669141 L743.508863,340.325557 L743.508863,338.693531 L758.524455,335 L759.646309,335.773065 L759.301123,347.884411 L759.301123,389.200424 C759.301123,390.288447 759.50248,391.190346 759.905199,391.906151 C760.307918,392.621955 761.027048,393.12301 762.062612,393.409332 L763.011873,393.66702 L763.011873,395.299046 L748.686653,396.243902 L747.909985,392.636267 C746.35664,393.838818 744.573197,394.783666 742.559602,395.470838 C740.546006,396.15801 738.331085,396.501591 735.914771,396.501591 Z M740.661078,392.550371 C743.134924,392.550371 745.464906,391.748682 747.651095,390.145281 L747.651095,358.191941 C745.522438,356.874861 743.22122,356.216331 740.747375,356.216331 C737.928342,356.216331 735.512064,357.690865 733.498469,360.639979 C731.484873,363.589092 730.478091,368.327645 730.478091,374.855779 C730.478091,381.383914 731.427343,385.964992 733.325876,388.599152 C735.224408,391.233311 737.669451,392.550371 740.661078,392.550371 Z M777.29457,396.501591 C774.015286,396.501591 771.239443,395.571059 768.966957,393.709968 C766.694471,391.848877 765.558245,389.17181 765.558245,385.678685 C765.558245,382.929997 766.895828,380.396088 769.571033,378.076882 C772.246238,375.757677 776.460342,374.054088 782.213471,372.966066 C783.191503,372.737008 784.327728,372.52227 785.622183,372.321845 C786.916637,372.12142 788.196689,371.906682 789.462377,371.677625 L789.462377,365.579003 C789.462377,361.685028 788.973368,358.993645 787.995336,357.504772 C787.017304,356.015899 785.463983,355.271474 783.335325,355.271474 L783.076436,355.271474 C781.753216,355.271474 780.703286,355.686634 779.926613,356.516967 C779.149941,357.3473 778.64655,358.707308 778.416424,360.597031 L778.157535,361.71368 C777.984941,364.004253 777.380872,365.67921 776.345308,366.7386 C775.309745,367.79799 774.01531,368.327678 772.461966,368.327678 C771.023683,368.327678 769.829927,367.883886 768.880661,366.996288 C767.931394,366.108691 767.456768,364.949106 767.456768,363.517497 C767.456768,361.16966 768.262194,359.19407 769.87307,357.590668 C771.483947,355.987267 773.626955,354.784734 776.30216,353.983033 C778.977365,353.181332 781.868269,352.780488 784.974959,352.780488 C790.095244,352.780488 794.007313,354.011653 796.711283,356.474019 C799.415254,358.936386 800.767219,362.944829 800.767219,368.49947 L800.767219,387.654295 C800.767219,390.116661 801.946593,391.347826 804.305376,391.347826 L806.290195,391.347826 L807.15316,392.292683 C806.117597,393.609763 804.966989,394.626189 803.7013,395.341994 C802.435612,396.057798 800.709699,396.415695 798.52351,396.415695 C796.049664,396.415695 794.079247,395.828744 792.612199,394.654825 C791.145151,393.480906 790.181517,391.920476 789.721266,389.973489 C787.880265,391.920476 786.068057,393.495222 784.284587,394.697773 C782.501117,395.900324 780.171134,396.501591 777.29457,396.501591 Z M782.299767,391.004242 C783.450393,391.004242 784.543471,390.746556 785.579034,390.231177 C786.614597,389.715798 787.909032,388.856846 789.462377,387.654295 L789.462377,373.910923 C787.966563,374.13998 786.442007,374.426297 784.888662,374.769883 C782.414817,375.342527 780.415634,376.401901 778.891055,377.948038 C777.366476,379.494175 776.604198,381.584292 776.604198,384.218452 C776.604198,386.509025 777.136354,388.212614 778.200683,389.329268 C779.265012,390.445923 780.63136,391.004242 782.299767,391.004242 Z M814.186951,416 C811.885699,416 810.073491,415.455997 808.750271,414.367975 C807.427051,413.279952 806.765451,411.848365 806.765451,410.073171 C806.765451,408.469769 807.326373,407.195657 808.448233,406.250795 C809.570093,405.305934 810.82138,404.83351 812.202131,404.83351 C813.640413,404.83351 814.819787,405.091196 815.740288,405.606575 C816.660788,406.121954 817.466214,406.866379 818.15659,407.839873 L818.674369,408.527041 C819.997589,410.130443 821.234493,410.101811 822.385119,408.441145 C823.133025,407.467652 823.866538,406.265119 824.58568,404.83351 C825.304821,403.401902 826.095864,401.512207 826.958833,399.164369 L810.562498,360.16755 C810.159779,359.079528 809.699535,358.234892 809.181754,357.633616 C808.663972,357.032341 807.887311,356.531285 806.851748,356.130435 L805.384707,355.615058 L805.384707,354.068929 L826.699944,354.068929 L826.699944,355.615058 L824.887717,356.130435 C823.622029,356.531285 822.946046,357.146868 822.859749,357.9772 C822.773452,358.807533 822.960426,359.881224 823.420677,361.198303 L832.22292,384.04666 L840.679978,361.026511 C841.140228,359.766696 841.312819,358.707321 841.197757,357.848356 C841.082694,356.989391 840.363564,356.416756 839.040344,356.130435 L837.141821,355.615058 L837.141821,354.068929 L850,354.068929 L850,355.615058 L848.101477,356.216331 C846.835789,356.559917 845.929684,357.060972 845.383137,357.719512 C844.83659,358.378052 844.333199,359.337215 843.872948,360.597031 L830.065508,397.532344 C827.764256,403.831421 825.419891,408.484078 823.032342,411.490456 C820.644794,414.496834 817.696359,416 814.186951,416 Z M449.063221,343.19946 L454.592486,341.308972 L463.188427,338.65743 L463.188427,343.401545 C463.188427,345.539677 461.829584,347.44146 459.80682,348.134307 L445.678991,352.973443 L445.678991,347.933119 C445.678991,345.793968 447.039109,343.891515 449.063221,343.19946 Z M701.074027,343.19946 L706.603292,341.308972 L715.199232,338.65743 L715.199232,343.401545 C715.199232,345.539677 713.840389,347.44146 711.817626,348.134307 L697.689797,352.973443 L697.689797,347.933119 C697.689797,345.793968 699.049915,343.891515 701.074027,343.19946 Z"></path>
        </g>
    </g>
</svg>