<?xml version="1.0" encoding="UTF-8"?>
<svg width="800px" height="144px" viewBox="0 0 800 144" version="1.1" xmlns="http://www.w3.org/2000/svg" xmlns:xlink="http://www.w3.org/1999/xlink">
    <!-- Generator: Sketch 55.2 (78181) - https://sketchapp.com -->
    <title>FiestaFriday</title>
    <desc>Created with Sketch.</desc>
    <g id="Brand" stroke="none" stroke-width="1" fill="none" fill-rule="evenodd">
        <g id="New-Logo" transform="translate(-225.000000, -303.000000)" fill="#353535" fill-rule="nonzero">
            <path d="M225,409.470192 L225,406.805266 C225,405.896687 225.612439,405.102272 226.491115,404.871091 L227.901999,404.499885 C229.9385,403.889065 231.262206,402.972849 231.873157,401.75121 C232.484107,400.529571 232.840489,398.849842 232.942314,396.711974 C233.044139,390.909188 233.095051,386.030137 233.095051,380.074646 L233.095051,338.157361 C233.095051,332.252771 233.044139,328.348271 232.942314,322.443681 C232.840489,320.305813 232.535019,318.651534 232.025893,317.480797 C231.516768,316.310059 230.294886,315.419294 228.36021,314.808474 L226.39371,314.182904 C225.563695,313.918864 225,313.148016 225,312.277015 L225,310.532759 C225,309.428189 225.895431,308.532759 227,308.532759 L296.547549,308.532759 C297.619915,308.532759 298.501445,309.378524 298.545834,310.449972 L299.450213,332.279578 C299.495438,333.371221 298.647149,334.292836 297.555505,334.338062 C297.528224,334.339192 297.500922,334.339757 297.473617,334.339757 L297.679812,334.339757 C296.251316,334.324003 294.911248,333.632295 294.083813,332.467842 C288.193335,324.178147 284.868446,319.701176 284.109146,319.036931 C282.887245,317.967997 281.105334,317.433538 278.763358,317.433538 L255.241889,317.433538 C255.140064,324.254357 255.063696,327.933571 255.012783,335.110701 C254.961871,342.287832 254.936415,346.332852 254.936415,353.459081 L269.599149,353.459081 C271.941125,353.459081 273.672125,352.924622 274.7922,351.855687 C275.494432,351.185516 277.38238,348.772941 280.456045,344.617963 C280.833198,344.10816 281.429769,343.807414 282.063917,343.807414 L282.734515,343.807414 C283.662411,343.807414 284.41462,344.559622 284.41462,345.487519 L284.41462,370.072166 C284.41462,371.000062 283.662411,371.752271 282.734515,371.752271 L282.049534,371.752271 C281.423295,371.752274 280.833209,371.458946 280.455137,370.95971 C277.300215,366.793707 275.387114,364.375136 274.715832,363.703997 C273.646669,362.635063 271.941125,362.100604 269.599149,362.100604 L254.936415,362.100604 L254.936415,379.311125 C254.936415,385.470223 254.987327,390.501976 255.089152,396.406566 C255.089152,400.580499 256.972887,403.176444 260.740414,404.194476 L263.776885,404.902835 C264.682108,405.114008 265.322518,405.921011 265.322518,406.850539 L265.322518,409.470192 L225,409.470192 Z M612,409.470192 L612,406.805266 C612,405.896687 612.612439,405.102272 613.491115,404.871091 L614.901999,404.499885 C616.9385,403.889065 618.262206,402.972849 618.873157,401.75121 C619.484107,400.529571 619.840489,398.849842 619.942314,396.711974 C620.044139,390.909188 620.095051,386.030137 620.095051,380.074646 L620.095051,338.157361 C620.095051,332.252771 620.044139,328.348271 619.942314,322.443681 C619.840489,320.305813 619.535019,318.651534 619.025893,317.480797 C618.516768,316.310059 617.294886,315.419294 615.36021,314.808474 L613.39371,314.182904 C612.563695,313.918864 612,313.148016 612,312.277015 L612,310.532759 C612,309.428189 612.895431,308.532759 614,308.532759 L683.547549,308.532759 C684.619915,308.532759 685.501445,309.378524 685.545834,310.449972 L686.450213,332.279578 C686.495438,333.371221 685.647149,334.292836 684.555505,334.338062 C684.528224,334.339192 684.500922,334.339757 684.473617,334.339757 L684.679812,334.339757 C683.251316,334.324003 681.911248,333.632295 681.083813,332.467842 C675.193335,324.178147 671.868446,319.701176 671.109146,319.036931 C669.887245,317.967997 668.105334,317.433538 665.763358,317.433538 L642.241889,317.433538 C642.140064,324.254357 642.063696,327.933571 642.012783,335.110701 C641.961871,342.287832 641.936415,346.332852 641.936415,353.459081 L656.599149,353.459081 C658.941125,353.459081 660.672125,352.924622 661.7922,351.855687 C662.494432,351.185516 664.38238,348.772941 667.456045,344.617963 C667.833198,344.10816 668.429769,343.807414 669.063917,343.807414 L669.734515,343.807414 C670.662411,343.807414 671.41462,344.559622 671.41462,345.487519 L671.41462,370.072166 C671.41462,371.000062 670.662411,371.752271 669.734515,371.752271 L669.049534,371.752271 C668.423295,371.752274 667.833209,371.458946 667.455137,370.95971 C664.300215,366.793707 662.387114,364.375136 661.715832,363.703997 C660.646669,362.635063 658.941125,362.100604 656.599149,362.100604 L641.936415,362.100604 L641.936415,379.311125 C641.936415,385.470223 641.987327,390.501976 642.089152,396.406566 C642.089152,400.580499 643.972887,403.176444 647.740414,404.194476 L650.776885,404.902835 C651.682108,405.114008 652.322518,405.921011 652.322518,406.850539 L652.322518,409.470192 L612,409.470192 Z M301.393862,409.470192 L301.393862,407.105455 C301.393862,406.199314 302.003082,405.40639 302.878639,405.172958 L303.684914,404.957997 C305.721415,404.347178 307.096032,403.430962 307.808808,402.209323 C308.521583,400.987684 308.928877,399.358856 309.030702,397.32279 L309.030702,363.444742 C309.030702,360.746955 308.979791,357.972858 308.877966,355.122366 C308.877966,353.086301 308.496127,351.482923 307.732439,350.312186 C307.265515,349.596388 305.4497,348.18429 302.284994,346.075893 C301.728284,345.705025 301.393862,345.080383 301.393862,344.411451 L301.393862,344.112822 C301.393862,343.292372 301.919636,342.564266 302.698444,342.306202 L327.008135,334.250999 C327.696322,334.022963 328.454029,334.185203 328.988506,334.675036 L329.288259,334.94975 C329.712467,335.338525 329.948677,335.891173 329.93652,336.466456 L329.497435,357.245378 L329.497435,397.475494 C329.497435,399.51156 329.879273,401.140388 330.642961,402.362027 C331.406649,403.583666 332.755811,404.499882 334.690487,405.110701 L334.896722,405.166935 C335.766896,405.404205 336.370592,406.194549 336.370592,407.096491 L336.370592,409.470192 L301.393862,409.470192 Z M752,409.588547 L752,407.22381 C752,406.317669 752.60922,405.524745 753.484778,405.291313 L754.291052,405.076352 C756.327553,404.465532 757.702171,403.549317 758.414946,402.327678 C759.127721,401.106038 759.535016,399.477211 759.636841,397.441145 L759.636841,363.563097 C759.636841,360.86531 759.585929,358.091213 759.484104,355.240721 C759.484104,353.204656 759.102266,351.601278 758.338578,350.430541 C757.871653,349.714743 756.055838,348.302645 752.891133,346.194248 C752.334422,345.82338 752,345.198737 752,344.529806 L752,344.231177 C752,343.410727 752.525774,342.682621 753.304582,342.424557 L777.614273,334.369354 C778.30246,334.141318 779.060167,334.303558 779.594644,334.793391 L779.894397,335.068105 C780.318605,335.45688 780.554815,336.009528 780.542659,336.584811 L780.103573,357.363733 L780.103573,397.593849 C780.103573,399.629915 780.485411,401.258743 781.249099,402.480382 C782.012787,403.702021 783.361949,404.618237 785.296625,405.229056 L785.50286,405.28529 C786.373034,405.52256 786.97673,406.312904 786.97673,407.214846 L786.97673,409.588547 L752,409.588547 Z M379.061637,333.881645 C385.476615,333.881645 390.975085,335.205068 395.557213,337.851953 C400.13934,340.498838 403.677707,344.13825 406.172421,348.770298 C408.667135,353.402347 409.914473,358.721488 409.914473,364.72788 C409.914473,366.051323 409.863561,367.298394 409.761736,368.469132 C409.659911,369.639869 409.456264,370.734238 409.150789,371.752271 L363.177009,371.752271 C363.278834,382.238007 365.238937,388.771336 369.057376,393.352483 C372.875815,397.93363 378.450653,401.224169 385.782057,401.224169 C390.873309,401.224169 394.997162,399.384305 398.153738,397.704551 C400.258123,396.584715 403.160122,394.217801 406.859737,390.603808 L409.303526,393.89437 C404.500819,400.528506 400.351469,404.880574 396.855476,406.950574 C391.611485,410.055574 385.374795,411.60805 378.145216,411.60805 C370.915638,411.60805 364.551667,410.081024 359.053115,407.026926 C353.554562,403.972828 349.252518,399.569903 346.146854,393.818018 C343.04119,388.066134 341.488381,381.169066 341.488381,373.126608 C341.488381,364.77874 343.295749,357.703519 346.910538,351.900733 C350.525328,346.097947 355.20921,341.644121 360.962325,338.539121 C366.71544,335.434122 372.748484,333.881645 379.061637,333.881645 Z M378.297953,338.310065 C375.345027,338.310065 372.773983,339.149929 370.584744,340.829683 C368.395505,342.509437 366.664506,345.461688 365.391692,349.686523 C364.118879,353.911359 363.380659,357.378917 363.177009,365.014162 L390.516898,365.014162 C391.636973,354.732032 391.229679,349.762898 389.295003,345.181751 C387.360327,340.600604 383.694681,338.310065 378.297953,338.310065 Z M441.913942,411.60805 C437.026339,411.60805 432.622472,411.073591 428.702207,410.004657 C424.781943,408.935722 421.039929,407.434147 417.476052,405.499885 L417.476052,389.480797 C417.476052,388.376227 418.371482,387.480797 419.476052,387.480797 L420.462459,387.480797 C421.167739,387.480797 421.820881,387.852267 422.181406,388.458437 L426.18205,395.184932 C428.116726,398.951653 430.331388,401.751201 432.826101,403.58366 C435.320815,405.416119 438.5028,406.332334 442.372152,406.332334 C447.157929,406.332334 450.976312,405.288867 453.827413,403.2019 C456.678514,401.114933 458.104044,399.289934 458.104044,395.72682 C458.104044,392.469116 457.034897,389.82227 454.896571,387.786205 C452.758245,385.75014 448.939862,383.866807 443.44131,382.136152 L436.72089,379.998294 C430.713212,378.165835 425.952962,375.391738 422.439998,371.675919 C418.927034,367.960099 417.170578,363.30267 417.170578,357.70349 C417.170578,353.32595 418.341549,349.330232 420.683525,345.716216 C423.025501,342.1022 426.436589,339.226301 430.916891,337.088432 C435.397193,334.950563 440.844752,333.881645 447.25973,333.881645 C451.434557,333.881645 455.278395,334.365203 458.791359,335.332334 C462.304324,336.299465 465.740867,337.648338 469.101094,339.378994 L468.290565,353.830334 C468.231147,354.889727 467.354762,355.718336 466.293703,355.718336 L465.402325,355.718336 C464.669619,355.718336 463.995567,355.317677 463.645443,354.674038 L459.478675,347.014201 C457.849474,343.756496 456.194842,342.491408 454.514729,341.218867 C452.834615,339.946326 450.263571,339.310065 446.80152,339.310065 C443.135818,339.310065 439.902921,340.251731 437.102732,342.135092 C434.302543,344.018452 432.90247,345.639847 432.90247,348.999355 C432.90247,352.155256 434.07344,354.72575 436.415416,356.710913 C438.757393,358.696077 442.524863,360.553959 447.71794,362.284614 L454.285623,364.269768 C461.718852,366.611243 467.013675,369.716196 470.170252,373.58472 C473.326828,377.453244 474.905093,382.085224 474.905093,387.480797 C474.905093,394.708829 472.028578,400.536978 466.275463,404.96542 C460.522348,409.393862 452.401922,411.60805 441.913942,411.60805 Z M508.43193,411.60805 C502.118777,411.60805 497.15488,410.055574 493.540091,406.950574 C489.925301,403.845574 488.117934,398.780938 488.117934,391.756513 C488.117934,389.313234 488.14339,386.997245 488.194302,384.808474 C488.245215,382.619704 488.270671,380.04921 488.270671,377.096915 L488.270671,342.906035 L479.426357,342.906035 C478.321788,342.906035 477.426357,342.010605 477.426357,340.906035 L477.426357,339.272131 C477.426357,338.28074 478.152629,337.438971 479.133321,337.293715 L481.550251,336.935728 C484.503177,336.426711 487.02331,335.510496 489.110723,334.187053 C491.198137,332.863611 493.107328,331.03118 494.838354,328.689704 L504.167501,315.775186 C504.543519,315.254658 505.146604,314.946332 505.788741,314.946332 L507.30471,314.946332 C508.409279,314.946332 509.30471,315.841763 509.30471,316.946332 C509.30471,316.960722 509.304555,316.975111 509.304244,316.989497 L508.89014,336.172207 L524.302137,336.172207 C525.406706,336.172207 526.302137,337.067638 526.302137,338.172207 L526.302137,340.906035 C526.302137,342.010605 525.406706,342.906035 524.302137,342.906035 L508.737403,342.906035 L508.737403,391.978146 C508.737403,395.643063 509.526536,398.39171 511.104824,400.224169 C512.683112,402.056628 514.643215,402.972843 516.985191,402.972843 C519.021692,402.972843 520.854516,402.489285 522.483716,401.522154 C524.112917,400.555023 525.742094,399.257051 527.371294,397.628199 L529.356873,400.918761 C527.422197,404.278268 524.723874,406.899663 521.261822,408.783024 C517.79977,410.666384 513.523182,411.60805 508.43193,411.60805 Z M687.141746,409.588547 L687.141746,406.687169 L689.432799,405.923648 C691.4693,405.414632 692.869373,404.549317 693.633061,403.327678 C694.396749,402.106038 694.778587,400.477211 694.778587,398.441145 L694.778587,354.698834 C694.676762,352.459162 694.269468,350.753983 693.556692,349.583245 C692.843917,348.412507 691.4693,347.623544 689.432799,347.216331 L688.626524,347.00137 C687.750966,346.767938 687.141746,345.975014 687.141746,345.068873 L687.141746,344.268126 C687.141746,343.421993 687.674209,342.667415 688.471398,342.383813 L710.903679,334.403482 C711.601467,334.155243 712.379309,334.31294 712.925319,334.813343 L713.309788,335.165696 C713.671092,335.496821 713.89824,335.94908 713.948113,336.436622 L715.24532,349.117709 L715.24532,350.186638 C716.772695,347.336147 718.707342,344.689302 721.049318,342.246023 C723.391295,339.802745 725.936883,337.817611 728.686159,336.290562 C731.435435,334.763513 734.184671,334 736.933947,334 C740.803299,334 743.705269,335.018017 745.639945,337.054083 C747.574621,339.090148 748.541945,341.686092 748.541945,344.841994 C748.541945,348.303305 747.574621,350.924699 745.639945,352.706257 C743.705269,354.487814 741.363328,355.378579 738.614052,355.378579 C734.54105,355.378579 731.028138,353.546148 728.075212,349.88123 L727.769738,349.575822 C726.751488,348.354183 725.605973,347.667021 724.33316,347.514316 C723.060347,347.361611 721.813009,347.997872 720.591108,349.423118 C719.572858,350.44115 718.63099,351.637321 717.765477,353.011665 C716.899964,354.386009 716.110832,355.989386 715.398056,357.821845 L715.398056,397.830329 C715.398056,399.764591 715.805351,401.367968 716.619951,402.640509 C717.434551,403.91305 718.809169,404.803815 720.743845,405.312831 L725.325949,406.687169 L725.325949,409.588547 L687.141746,409.588547 Z M823.079722,412.336161 C817.072044,412.336161 811.675397,410.987288 806.88962,408.289502 C802.103843,405.591715 798.361828,401.417844 795.663464,395.767762 C792.965101,390.117681 791.615939,382.915208 791.615939,374.160127 C791.615939,365.405046 793.143292,358.100772 796.198043,352.247084 C799.252795,346.393396 803.325736,341.990471 808.416988,339.038176 C813.508241,336.085881 819.108534,334.609756 825.218037,334.609756 C828.883739,334.609756 832.396651,335.042413 835.756877,335.907741 C839.117104,336.773069 842.069986,338.071041 844.615612,339.801697 L844.615612,320.950159 C844.615612,318.81229 844.284686,317.259814 843.622823,316.292683 C842.96096,315.325552 841.611799,314.587489 839.575298,314.078473 L838.12841,313.789157 C837.193523,313.60222 836.520561,312.781373 836.520561,311.82798 L836.520561,311.124328 C836.520561,310.208216 837.142993,309.409229 838.031265,309.185104 L861.663957,303.222214 C862.223586,303.081011 862.816932,303.188457 863.291508,303.51694 L863.665625,303.775889 C864.206906,304.150541 864.529162,304.767562 864.527363,305.425852 L864.471398,325.90562 L864.471398,398.35631 C864.471398,400.290572 864.82778,401.893949 865.540555,403.16649 C866.253331,404.439031 867.526125,405.329796 869.358976,405.838812 L869.565211,405.895046 C870.435385,406.132316 871.039081,406.92266 871.039081,407.824602 L871.039081,408.326421 C871.039081,409.379667 870.222236,410.25242 869.171293,410.322046 L847.410179,411.763739 C846.419393,411.829379 845.530476,411.158165 845.32238,410.187258 L844.310139,405.464475 C841.560862,407.602344 838.404333,409.282072 834.840456,410.503712 C831.27658,411.725351 827.356374,412.336161 823.079722,412.336161 Z M831.480247,404.311771 C835.858724,404.311771 839.982576,402.886547 843.851928,400.036055 L843.851928,345.230117 C840.084401,342.888642 836.011461,341.717922 831.632983,341.717922 C826.643556,341.717922 822.366968,344.339316 818.803091,349.582185 C815.239215,354.825053 813.457303,362.249147 813.457303,373.854719 C813.457303,385.460291 815.137391,392.60443 818.497618,397.287381 C821.857844,401.970331 826.185344,404.311771 831.480247,404.311771 Z M896.31813,412.336161 C890.514102,412.336161 885.601117,410.681883 881.579027,407.373277 C877.556938,404.064671 875.545923,399.305439 875.545923,393.09544 C875.545923,388.208883 877.91332,383.704156 882.648185,379.581124 C887.38305,375.458092 894.841623,372.42949 905.024128,370.495228 C906.755154,370.088015 908.766168,369.706258 911.057232,369.349947 C913.348296,368.993636 915.613869,368.611879 917.85402,368.204666 L917.85402,357.362672 C917.85402,350.44005 916.98852,345.655368 915.257494,343.008484 C913.526468,340.361599 910.777233,339.038176 907.009707,339.038176 L906.551496,339.038176 C904.20952,339.038176 902.351241,339.776239 900.976602,341.252386 C899.601964,342.728533 898.711008,345.146325 898.303708,348.505832 L897.845498,350.490986 C897.540023,354.563117 896.470876,357.540818 894.638025,359.424178 C892.805174,361.307539 890.514145,362.249205 887.764868,362.249205 C885.219242,362.249205 883.106404,361.460241 881.426291,359.882291 C879.746177,358.30434 878.906133,356.242855 878.906133,353.697773 C878.906133,349.523839 880.331663,346.011679 883.182764,343.161188 C886.033865,340.310696 889.826792,338.17286 894.561656,336.747614 C899.296521,335.322368 904.413153,334.609756 909.911706,334.609756 C918.974135,334.609756 925.898135,336.798493 930.683912,341.176034 C935.46969,345.553574 937.862542,352.679696 937.862542,362.554613 L937.862542,395.607635 C937.862542,399.985176 939.949925,402.173913 944.124752,402.173913 L946.47558,402.173913 C947.194081,402.173913 947.857369,402.559323 948.213158,403.183549 L949.165066,404.853659 C947.332216,407.195134 945.295745,409.002115 943.055594,410.274655 C940.815443,411.547196 937.760737,412.183457 933.891385,412.183457 C929.512908,412.183457 926.025453,411.139989 923.428914,409.053022 C920.832375,406.966055 919.126831,404.191958 918.312231,400.730647 C915.053829,404.191958 911.846388,406.991506 908.689811,409.129374 C905.533235,411.267243 901.409382,412.336161 896.31813,412.336161 Z M905.176865,402.563097 C907.213366,402.563097 909.148013,402.104989 910.980864,401.188759 C912.813715,400.27253 915.104744,398.745504 917.85402,396.607635 L917.85402,373.174973 C915.206569,373.582187 912.508245,374.091195 909.758969,374.702015 C905.380492,375.720048 901.842125,377.60338 899.143761,380.352068 C896.445397,383.100756 895.096235,385.81652 895.096235,390.49947 C895.096235,394.5716 896.038103,397.600202 897.921866,399.585366 C899.80563,401.57053 902.223938,402.563097 905.176865,402.563097 Z M554.772206,412.336161 C548.968178,412.336161 544.055194,410.681883 540.033104,407.373277 C536.011015,404.064671 534,399.305439 534,393.09544 C534,388.208883 536.367397,383.704156 541.102262,379.581124 C545.837127,375.458092 553.2957,372.42949 563.478205,370.495228 C565.20923,370.088015 567.220245,369.706258 569.511309,369.349947 C571.802372,368.993636 574.067946,368.611879 576.308097,368.204666 L576.308097,357.362672 C576.308097,350.44005 575.442597,345.655368 573.711571,343.008484 C571.980545,340.361599 569.23131,339.038176 565.463783,339.038176 L565.005573,339.038176 C562.663597,339.038176 560.805317,339.776239 559.430679,341.252386 C558.056041,342.728533 557.165085,345.146325 556.757785,348.505832 L556.299574,350.490986 C555.994099,354.563117 554.924952,357.540818 553.092101,359.424178 C551.259251,361.307539 548.968221,362.249205 546.218945,362.249205 C543.673319,362.249205 541.560481,361.460241 539.880367,359.882291 C538.200254,358.30434 537.36021,356.242855 537.36021,353.697773 C537.36021,349.523839 538.785739,346.011679 541.636841,343.161188 C544.487942,340.310696 548.280868,338.17286 553.015733,336.747614 C557.750598,335.322368 562.86723,334.609756 568.365783,334.609756 C577.428212,334.609756 584.352212,336.798493 589.137989,341.176034 C593.923766,345.553574 596.316619,352.679696 596.316619,362.554613 L596.316619,395.607635 C596.316619,399.985176 598.404001,402.173913 602.578828,402.173913 L604.929656,402.173913 C605.648158,402.173913 606.311446,402.559323 606.667235,403.183549 L607.619143,404.853659 C605.786292,407.195134 603.749822,409.002115 601.509671,410.274655 C599.269519,411.547196 596.214814,412.183457 592.345462,412.183457 C587.966985,412.183457 584.479529,411.139989 581.88299,409.053022 C579.286452,406.966055 577.580908,404.191958 576.766307,400.730647 C573.507906,404.191958 570.300465,406.991506 567.143888,409.129374 C563.987311,411.267243 559.863459,412.336161 554.772206,412.336161 Z M563.630941,402.563097 C565.667442,402.563097 567.602089,402.104989 569.43494,401.188759 C571.267791,400.27253 573.55882,398.745504 576.308097,396.607635 L576.308097,373.174973 C573.660645,373.582187 570.962322,374.091195 568.213046,374.702015 C563.834569,375.720048 560.296201,377.60338 557.597837,380.352068 C554.899474,383.100756 553.550312,385.81652 553.550312,390.49947 C553.550312,394.5716 554.492179,397.600202 556.375943,399.585366 C558.259706,401.57053 560.678015,402.563097 563.630941,402.563097 Z M961.614223,447 C957.541221,447 954.33378,446.032883 951.991804,444.098621 C949.649828,442.164359 948.478858,439.619316 948.478858,436.463415 C948.478858,433.612923 949.471637,431.347834 951.457225,429.668081 C953.442814,427.988327 955.657475,427.148462 958.101277,427.148462 C960.646903,427.148462 962.734285,427.60657 964.363486,428.5228 C965.992687,429.439029 967.418216,430.762452 968.640117,432.493107 C970.200659,435.173923 971.659765,435.530233 973.017432,433.562036 C974.341158,431.831381 975.639407,429.693544 976.912221,427.148462 C978.185034,424.603381 979.585107,421.243923 981.112483,417.069989 L955.199277,348.742312 C954.486502,346.80805 953.671914,345.306474 952.755488,344.23754 C951.839063,343.168605 950.464445,342.27784 948.631594,341.565217 L947.369555,341.119887 C946.569866,340.837704 946.035069,340.081876 946.035069,339.233862 L946.035069,338.774655 C946.035069,337.739487 946.874238,336.900318 947.909406,336.900318 L979.886724,336.900318 C980.921892,336.900318 981.761061,337.739487 981.761061,338.774655 L981.761061,339.140301 C981.761061,340.033304 981.169052,340.818102 980.310395,341.06338 L978.553588,341.565217 C976.313437,342.27784 975.11701,343.372209 974.964273,344.848356 C974.811535,346.324504 975.142462,348.233286 975.957062,350.574761 L990.429428,390.194062 L1005.39764,350.269353 C1006.21224,348.029681 1006.51771,346.146349 1006.31406,344.6193 C1006.11041,343.092251 1004.83761,342.074234 1002.49564,341.565217 L1000.6093,341.050871 C999.739122,340.813602 999.135427,340.023257 999.135427,339.121315 L999.135427,338.774655 C999.135427,337.739487 999.974596,336.900318 1001.00976,336.900318 L1023.12566,336.900318 C1024.16083,336.900318 1025,337.739487 1025,338.774655 L1025,339.186462 C1025,340.057463 1024.43631,340.828312 1023.60629,341.092351 L1021.63979,341.717922 C1019.39964,342.328741 1017.79592,343.219506 1016.82858,344.390244 C1015.86124,345.560981 1014.97029,347.266161 1014.15569,349.505832 L989.717797,414.168611 C985.644795,425.36697 981.495486,433.638361 977.269746,438.983033 C973.044007,444.327704 967.825551,447 961.614223,447 Z M762.705318,317.253686 L784.964417,309.976391 C785.545417,309.786441 786.170395,310.10345 786.360345,310.68445 C786.396646,310.795485 786.41514,310.911566 786.41514,311.028384 L786.41514,316.896402 C786.41514,321.320613 783.60662,325.256973 779.423087,326.69631 L756.891924,334.448116 C756.313915,334.646979 755.684135,334.33962 755.485272,333.76161 C755.445409,333.645746 755.425062,333.524067 755.425062,333.401537 L755.425062,327.293325 C755.425062,322.724434 758.362625,318.673468 762.705318,317.253686 Z M313.023797,316.284347 L335.282895,309.007052 C335.863895,308.817102 336.488873,309.134111 336.678823,309.715111 C336.715124,309.826145 336.733618,309.942227 336.733618,310.059045 L336.733618,315.927063 C336.733618,320.351274 333.925098,324.287633 329.741565,325.72697 L307.210403,333.478777 C306.632393,333.67764 306.002613,333.370281 305.80375,332.792271 C305.763887,332.676407 305.743541,332.554727 305.743541,332.432197 L305.743541,326.323985 C305.743541,321.755094 308.681103,317.704128 313.023797,316.284347 Z" id="FiestaFriday"></path>
        </g>
    </g>
</svg>